<mxfile host="app.diagrams.net" modified="2024-04-25T08:18:56.068Z" agent="Mozilla/5.0 (Macintosh; Intel Mac OS X 10_15_7) AppleWebKit/537.36 (KHTML, like Gecko) Chrome/123.0.0.0 Safari/537.36" version="24.2.8" etag="3z8CZsSg_IXw3My4br4F" type="github">
  <diagram name="第 1 页" id="0C5Ays6j6iC_VC3H75j0">
    <mxGraphModel>
      <root>
        <mxCell id="0" />
        <mxCell id="1" parent="0" />
      </root>
    </mxGraphModel>
  </diagram>
</mxfile>
